<?xml version="1.0" encoding="UTF-8" standalone="no"?>
<!-- Created with Inkscape (http://www.inkscape.org/) -->

<svg
   width="2880"
   height="1800"
   viewBox="0 0 2880 1800"
   version="1.1"
   id="svg5"
   xml:space="preserve"
   xmlns:xlink="http://www.w3.org/1999/xlink"
   xmlns="http://www.w3.org/2000/svg"
   xmlns:svg="http://www.w3.org/2000/svg"><defs
     id="defs2" /><g
     id="layer1"><rect
       style="display:inline;fill:#3b05a6;fill-opacity:1;stroke-width:1.94648"
       id="rect4781"
       width="2880"
       height="1800"
       x="0"
       y="0" /></g><g
     id="layer3"
     style="fill:#e6e6e6;fill-opacity:1"><g
       style="mix-blend-mode:normal;fill:#e6e6e6;fill-opacity:1;fill-rule:evenodd;stroke:#000000;stroke-linecap:round;stroke-linejoin:round"
       id="g642"
       transform="matrix(7.2409293,0,0,7.2409293,2164.5062,1437.2037)"><use
         xlink:href="#a"
         x="0.5"
         y="0.5"
         id="use625"
         style="fill:#e6e6e6;fill-opacity:1" /><symbol
         id="a"
         overflow="visible"
         style="fill:#e6e6e6;fill-opacity:1"><path
           d="m 9.457,0.75 v 3.022 h -3 v 20.12 H 3.022 V 3.773 H 0 V 0.75 Z m 4.16,5.624 h 0.065 c 0.455,-0.877 1.3,-1.3 2.145,-1.3 2.373,0 2.405,1.397 2.405,3.348 v 15.47 h -3.12 V 8.876 c 0,-0.52 -0.032,-1.138 -0.683,-1.138 -0.78,0 -0.813,0.618 -0.813,1.138 v 15.016 h -3.12 V 0.75 h 3.12 v 5.623 z m 6.11,17.518 V 5.3 h 3.12 v 18.6 h -3.12 z M 24.34,5.3 h 3.12 v 1.073 h 0.065 c 0.455,-0.877 1.3,-1.3 2.146,-1.3 2.373,0 2.405,1.397 2.405,3.348 v 15.47 h -3.12 V 8.876 c 0,-0.52 -0.032,-1.138 -0.683,-1.138 -0.78,0 -0.813,0.618 -0.813,1.138 v 15.016 h -3.12 z m 9.102,18.592 V 0.75 h 3.12 v 13.1 h 0.13 l 1.7,-8.548 h 3.12 L 39.724,13.688 41.6,23.892 H 38.414 L 36.7,14.1 h -0.13 v 9.783 h -3.12 z m 9.23,0 V 0.75 h 3.607 c 3.803,0 5.493,1.43 5.396,4.518 v 5.005 c 0.032,3.77 -1.886,4.94 -5.558,4.745 v 8.873 h -3.445 z m 3.445,-11.636 c 1.007,0 2.015,0.033 2.112,-1.04 V 5.724 c 0,-2.146 -0.747,-2.308 -2.112,-2.2 v 8.742 z M 60.97,23.892 H 58.044 C 57.85,23.492 57.85,23.047 57.85,22.624 h -0.065 c -0.65,1.072 -1.138,1.495 -2.438,1.495 -1.365,0 -2.112,-0.748 -2.112,-2.146 v -6.24 c 0,-3.77 4.518,-1.787 4.518,-6.532 0,-0.553 0.13,-1.853 -0.618,-1.853 -0.9,0 -0.747,1.495 -0.747,2.145 v 2.438 H 53.236 V 8.193 c 0,-1.917 1.495,-3.12 3.867,-3.12 2.372,0 3.868,1.203 3.868,3.12 v 15.7 z m -3.12,-9.62 c -0.878,0.52 -1.495,0.9 -1.495,1.885 v 4.68 c 0.064,0.4 0.324,0.65 0.747,0.617 0.423,-0.065 0.748,-0.325 0.748,-0.748 V 14.27 Z m 12.155,9.62 h -3.12 V 22.787 H 66.82 c -0.487,0.683 -1.3,1.333 -2.242,1.333 -1.203,0 -2.308,-0.65 -2.308,-2.178 V 7.25 c 0,-1.527 1.104,-2.178 2.308,-2.178 1.007,0 1.787,0.683 2.242,1.397 h 0.065 V 0.75 h 3.12 z M 65.4,20.316 c 0,0.975 0.357,1.138 0.747,1.138 0.39,0 0.748,-0.163 0.748,-1.138 V 8.876 c 0,-0.975 -0.358,-1.138 -0.748,-1.138 -0.39,0 -0.747,0.162 -0.747,1.138 z"
           fill="#000000"
           fill-rule="nonzero"
           stroke="none"
           id="path627"
           style="fill:#e6e6e6;fill-opacity:1" /><circle
           cx="21.25"
           cy="2"
           fill="#e32726"
           stroke="none"
           r="2"
           id="circle629"
           style="fill:#d40000;fill-opacity:1" /></symbol></g></g><g
     fill-rule="evenodd"
     clip-rule="evenodd"
     id="g5069"
     transform="matrix(2.1858543,0,0,2.1858543,2293.161,1310.2679)"
     style="display:none;mix-blend-mode:screen"><path
       fill="#ffffff"
       fill-opacity="0"
       d="M 0,0 H 192.756 V 192.756 H 0 Z"
       id="path5059" /><path
       d="M 44.116,127.375 H 2.908 v -1.459 c 7.22,-0.729 7.876,-1.367 7.876,-7.658 V 75.775 c 0,-6.291 -0.729,-7.02 -7.95,-7.658 v -1.459 h 23.704 v 1.459 c -7.876,0.638 -8.679,1.367 -8.679,7.658 v 42.94 c 0,5.926 0.948,6.928 6.856,6.928 10.939,0 17.139,-7.658 18.161,-22.609 h 1.24 z"
       id="path5061"
       style="fill:#e6e6e6;fill-opacity:1" /><path
       d="m 63.617,75.136 c -2.407,0 -4.376,-2.461 -4.376,-5.47 0,-3.008 1.97,-5.47 4.376,-5.47 2.406,0 4.375,2.461 4.375,5.47 10e-4,3.009 -1.969,5.47 -4.375,5.47 z m 5.908,36.194 c -2.772,10.393 -7.439,16.684 -12.254,16.684 -4.083,0 -6.783,-3.738 -6.783,-9.572 0,-2.371 0.438,-4.924 1.459,-8.754 l 3.647,-14.13 c 0.072,-0.273 0.364,-1.185 0.802,-2.917 0.438,-1.55 0.657,-2.644 0.657,-3.374 0,-1.823 -0.875,-3.008 -2.188,-3.008 -3.355,0 -6.418,4.649 -10.064,15.315 l -1.24,-0.637 c 2.042,-6.747 4.376,-11.488 7.001,-14.405 1.459,-1.551 3.063,-2.279 4.887,-2.279 4.157,0 7.075,3.92 7.075,9.39 0,2.462 -0.875,7.202 -2.115,11.669 l -1.823,6.473 -1.386,5.379 -0.729,2.553 c -0.292,1.186 -0.511,2.461 -0.511,3.281 0,1.824 0.876,3.01 2.115,3.01 3.428,0 7.221,-5.562 10.211,-15.135 z"
       fill="#cc2229"
       id="path5063" /><path
       d="m 92.681,83.615 c 3.209,0 6.418,1.549 8.168,4.011 1.824,2.644 2.115,4.285 2.115,12.216 v 19.055 c 0,5.379 1.094,6.383 7.002,7.02 v 1.459 H 89.18 v -1.459 c 5.98,-0.637 7.001,-1.641 7.001,-6.93 v -18.688 c 0,-11.852 -0.656,-13.584 -5.178,-13.584 -4.157,0 -8.096,3.464 -9.919,8.751 -1.75,5.014 -2.188,8.571 -2.188,17.413 v 6.107 c 0,5.289 1.021,6.293 7.002,6.93 v 1.459 H 65.111 v -1.459 c 5.981,-0.637 7.002,-1.641 7.002,-6.93 V 93.279 c 0,-4.741 -0.219,-5.471 -1.969,-6.199 -1.021,-0.456 -2.042,-0.547 -5.251,-0.82 v -1.55 c 4.23,-0.091 10.357,-0.547 14.003,-1.094 v 13.4 C 81.23,88.538 86.335,83.615 92.681,83.615 Z m 35.13,1.094 c 4.814,-0.091 10.574,-0.547 14.076,-1.094 v 35.281 c 0,5.379 1.021,6.383 7.002,7.02 v 1.459 h -1.021 l -6.346,0.365 a 66.695,66.695 0 0 0 -5.178,0.363 c -0.293,0 -0.73,0.092 -1.312,0.184 V 115.25 c -1.533,4.375 -2.262,5.744 -4.012,8.113 -2.48,3.373 -6.053,5.197 -9.701,5.197 -3.209,0 -6.125,-1.551 -7.658,-4.193 -1.75,-2.826 -2.26,-5.926 -2.26,-12.127 V 93.279 c 0,-4.741 -0.291,-5.471 -2.043,-6.199 -1.094,-0.365 -2.553,-0.639 -5.469,-0.82 v -1.55 c 4.375,-0.091 11.086,-0.547 14.295,-1.094 v 30.723 c 0,7.932 1.604,11.578 5.178,11.578 4.084,0 8.389,-4.832 10.283,-11.67 1.021,-3.463 1.387,-6.928 1.387,-12.215 V 93.28 c 0,-4.741 -0.221,-5.471 -1.971,-6.199 -0.947,-0.365 -2.406,-0.639 -5.25,-0.82 z"
       id="path5065"
       style="fill:#e6e6e6;fill-opacity:1" /><path
       d="m 181.898,119.717 c 2.918,5.105 3.865,5.836 8.023,6.199 v 1.459 H 170.01 v -1.459 c 4.23,-0.455 5.398,-1.002 5.398,-2.643 0,-0.457 -0.365,-1.369 -0.803,-2.189 l -1.24,-2.279 -6.418,-11.031 -4.814,8.297 c -1.822,3.283 -2.697,5.287 -2.697,6.564 0,2.098 1.238,2.826 5.615,3.281 v 1.459 H 148.35 v -1.459 c 4.375,-0.637 6.125,-1.822 9.334,-6.381 1.752,-2.553 1.971,-2.918 4.961,-8.023 l 3.209,-5.652 -7.658,-13.401 c -2.699,-4.741 -3.793,-5.562 -8.242,-6.108 v -1.458 h 19.473 v 1.458 c -3.572,0.365 -4.887,1.003 -4.887,2.37 0,0.365 0.221,1.003 0.584,1.732 l 1.096,2.006 5.469,9.481 4.303,-7.293 c 1.24,-2.188 1.896,-3.92 1.896,-5.196 0,-1.824 -1.312,-2.553 -5.324,-3.1 v -1.458 h 15.682 v 1.458 c -4.596,0.729 -6.564,2.279 -9.41,7.111 l -1.969,3.281 -4.084,7.021 z"
       id="path5067"
       style="fill:#e6e6e6;fill-opacity:1" /></g></svg>
